P3
5 5
4
0 0 1  0 0 3  0 0 1  0 0 3  0 0 1  
0 1 2  2 3 4  0 1 2  2 3 4  0 1 2  
0 0 1  0 0 3  0 0 1  0 0 3  0 0 1  
0 1 2  2 3 4  0 1 2  2 3 4  0 1 2  
0 0 1  0 0 3  0 0 1  0 0 3  0 0 1  
